<svg width="24" height="24" viewBox="0 0 24 24" fill="none" xmlns="http://www.w3.org/2000/svg">
<g clip-path="url(#clip0_17_2)">
<path d="M19 13.431V16C19 18.398 15.795 20 12 20C8.20501 20 5.00001 18.398 5.00001 16V13.431L10.886 15.785C11.5274 16.0418 12.2377 16.0693 12.897 15.863L13.114 15.785L19 13.431ZM21 10.476L12.371 13.928C12.1328 14.0232 11.8672 14.0232 11.629 13.928L1.62901 9.928C0.790006 9.593 0.790006 8.407 1.62901 8.072L11.629 4.072C11.7076 4.04037 11.79 4.01887 11.874 4.008L12 4L12.126 4.008C12.2101 4.01887 12.2924 4.04037 12.371 4.072L22.403 8.085L22.511 8.14L22.61 8.208L22.698 8.284L22.773 8.366L22.808 8.41L22.881 8.525L22.933 8.64L22.967 8.742L22.992 8.877L22.998 8.935L23 15C23 15.2652 22.8946 15.5196 22.7071 15.7071C22.5196 15.8946 22.2652 16 22 16C21.7348 16 21.4804 15.8946 21.2929 15.7071C21.1054 15.5196 21 15.2652 21 15V10.476Z" fill="#3F48E6"/>
</g>
<defs>
<clipPath id="clip0_17_2">
<rect width="24" height="24" fill="white"/>
</clipPath>
</defs>
</svg>
